<svg width="20" height="20" viewBox="0 0 20 20" fill="none" xmlns="http://www.w3.org/2000/svg">
<path d="M10 9.68957C10.8357 9.68957 11.6371 9.3576 12.228 8.76668C12.819 8.17577 13.1509 7.37431 13.1509 6.53863C13.1509 5.70295 12.819 4.9015 12.228 4.31058C11.6371 3.71967 10.8357 3.3877 10 3.3877C9.16432 3.3877 8.36287 3.71967 7.77195 4.31058C7.18104 4.9015 6.84906 5.70295 6.84906 6.53863C6.84906 7.37431 7.18104 8.17577 7.77195 8.76668C8.36287 9.3576 9.16432 9.68957 10 9.68957ZM10 11.0739C5.81063 11.0739 3.125 13.3858 3.125 14.5114V16.6133H16.875V14.5114C16.875 13.1502 14.3325 11.0739 10 11.0739Z" fill="#7F2828"/>
</svg>
