<svg width="22" height="22" viewBox="0 0 22 22" fill="none" xmlns="http://www.w3.org/2000/svg">
<path fill-rule="evenodd" clip-rule="evenodd" d="M5.87814 7.5784C4.18199 10.1169 4.60115 13.5148 6.86335 15.565C9.12553 17.6152 12.5482 17.6991 14.9081 15.7622C17.2681 13.8253 17.8532 10.452 16.2835 7.83344C14.7137 5.21488 11.4627 4.14118 8.64222 5.30976C7.51681 5.77603 6.55491 6.56551 5.87814 7.5784Z" stroke="#7F2828" stroke-linecap="round" stroke-linejoin="round"/>
<path fill-rule="evenodd" clip-rule="evenodd" d="M8.30583 8.52028C8.69303 8.11196 8.83384 7.99756 8.99488 7.94476C9.10998 7.91419 9.23089 7.91238 9.34688 7.93948C9.49824 7.98348 9.53784 8.01692 10.0342 8.51148C10.4742 8.9462 10.5138 8.99284 10.5551 9.0782C10.6353 9.2275 10.6478 9.40394 10.5894 9.56304C10.5463 9.6836 10.483 9.76369 10.219 10.0294L10.043 10.2054C9.99641 10.252 9.98567 10.3234 10.0166 10.3814C10.4009 11.0358 10.9462 11.5811 11.6006 11.9654C11.6758 12.0055 11.7682 11.9923 11.8294 11.9329L11.9957 11.7692C12.0976 11.6624 12.2057 11.5616 12.3195 11.4674C12.4977 11.3585 12.7192 11.3486 12.9065 11.441C12.9945 11.4841 13.0288 11.5122 13.4794 11.961C13.9431 12.423 13.9563 12.438 14.0074 12.5436C14.1042 12.7189 14.1042 12.9316 14.0074 13.1068C13.9572 13.2054 13.9273 13.2414 13.6659 13.5081C13.5084 13.6691 13.3606 13.8178 13.3368 13.8381C13.1216 14.0164 12.8454 14.1038 12.5668 14.0818C12.0573 14.0355 11.564 13.8781 11.1218 13.6207C10.142 13.1016 9.30789 12.3453 8.69567 11.4207C8.56326 11.2275 8.4456 11.0245 8.34367 10.8135C8.06804 10.3411 7.92571 9.80284 7.93183 9.25592C7.95084 8.96996 8.08596 8.70417 8.30583 8.52028Z" stroke="#7F2828" stroke-linecap="round" stroke-linejoin="round"/>
</svg>
